<svg xmlns="http://www.w3.org/2000/svg" xmlns:xlink="http://www.w3.org/1999/xlink" width="260" height="260" viewBox="0 0 260 260">
  <defs>
    <clipPath id="clip-path">
      <rect id="Rectangle_395" data-name="Rectangle 395" width="364" height="364" fill="none"/>
    </clipPath>
    <clipPath id="clip-favikon">
      <rect width="260" height="260"/>
    </clipPath>
  </defs>
  <g id="favikon" clip-path="url(#clip-favikon)">
    <rect width="260" height="260" fill="#fff"/>
    <g id="Group_2" data-name="Group 2" transform="translate(-32 -36.996)">
      <g id="Group_1" data-name="Group 1" transform="translate(0 -0.004)" clip-path="url(#clip-path)">
        <path id="Path_4" data-name="Path 4" d="M1621.649,150.1c-12.491-2.812-25.416,1.04-37.566,5.1-11.584,3.871-23.192,8.012-33.627,14.4s-19.73,15.235-24.781,26.452-5.353,24.981.985,35.512c8.985,14.93,27.825,19.749,42.033,29.716,3.815,2.676,7.485,5.978,9.056,10.392,2.65,7.445-1.306,15.417-4.26,22.745a93.557,93.557,0,0,0-6.546,28.5c-.187,2.717-.164,5.722,1.588,7.792a9.881,9.881,0,0,0,4.89,2.7c21.478,6.433,44.073-3.994,66.452-5.049" transform="translate(-1310.681 -129.284)" fill="#ffdfc0"/>
        <path id="Path_5" data-name="Path 5" d="M1424.5,536.189a.2.2,0,1,0,0,.4.2.2,0,1,0,0-.4" transform="translate(-1226.634 -464.82)" fill="#009245"/>
        <path id="Path_6" data-name="Path 6" d="M2418.252,1204.939a.2.2,0,1,0,0,.4.2.2,0,1,0,0-.4" transform="translate(-2082.469 -1044.556)" fill="#009245"/>
        <path id="Path_7" data-name="Path 7" d="M1111.127,755.026a.2.2,0,1,0,0-.4.2.2,0,1,0,0,.4" transform="translate(-956.75 -654.183)" fill="#009245"/>
        <path id="Path_8" data-name="Path 8" d="M2208,1051.9a.2.2,0,1,0,0-.4.2.2,0,1,0,0,.4" transform="translate(-1901.399 -911.542)" fill="#009245"/>
        <path id="Path_9" data-name="Path 9" d="M19.133,1356.711c-2.389-10.634-9.288-19.22-13.428-29.164C2.257,1319.263.767,1310.112.225,1301c-.733-12.315.245-24.9,4.1-36.468s10.727-22.1,20.137-28.606a51.448,51.448,0,0,1,23.123-8.3c12.135-1.5,25.378.626,34.446,9.737,7.232,7.265,10.925,18.224,11.366,29.063.51,12.571-2.686,26.543,3.812,36.835,3.307,5.237,8.615,8.448,13.969,10.774,10.206,4.433,21.134,6.29,31.814,9,5.252,1.332,10.661,2.989,14.745,6.9,7.873,7.547,8.261,21.856,2.9,31.766s-15.113,15.939-25.056,19.281c-19.59,6.584-40.708,4.3-60.734-.379s-39.649-11.7-59.953-14.531a2.471,2.471,0,0,1-1.995-.991,3.1,3.1,0,0,1-.146-1.876c.622-4.725,2.662-10.646,6.944-10.47" transform="translate(0 -1063.845)" fill="#d7bfae"/>
        <path id="Path_10" data-name="Path 10" d="M205.54,2242.127a.2.2,0,1,0,0-.4.2.2,0,1,0,0,.4" transform="translate(-176.842 -1943.343)" fill="#ed1c24"/>
        <path id="Path_11" data-name="Path 11" d="M273.682,396.612a.2.2,0,1,0,0-.4.2.2,0,1,0,0,.4" transform="translate(-235.527 -343.475)" fill="#f0f"/>
        <path id="Path_12" data-name="Path 12" d="M26.348,130.816c5.007,4.229,10.2,8.563,16.5,10.528,9.543,2.975,19.864.036,29.322-3.189,3.965-1.352,8.053-2.843,11-5.775,2.823-2.811,4.287-6.657,5.327-10.466,4.832-17.712,2.457-37.9,13.081-53,7.374-10.477,19.883-16.478,32.509-19.486s25.724-3.454,38.575-5.34c6.269-.92,12.932-2.422,17.205-7.007,5.14-5.515,5.329-13.862,4.249-21.253a5.7,5.7,0,0,0-1.256-3.293,6.122,6.122,0,0,0-2.73-1.325L169.186,5.09C162,2.989,154.745.876,147.27.23c-7.412-.64-14.862.177-22.277.781A390.428,390.428,0,0,1,75.6,1.9c-3.61-.164-7.3-.37-10.775.591a32.669,32.669,0,0,0-8.738,4.442l-30.1,19.337A6.831,6.831,0,0,0,23.5,28.526,6.489,6.489,0,0,0,23.033,32C24.8,65.626,37,99.605,28.615,132.261" transform="translate(-19.808 0.004)" fill="#ffc1cb"/>
        <path id="Path_13" data-name="Path 13" d="M1018.51,883.641c-10.547-14.613-29.947-19.983-47.147-26.6a215.762,215.762,0,0,1-59.669-34.739,47.835,47.835,0,0,1-7.68-7.485c-8.053-10.462-7.013-24.669-8.516-37.593A90.636,90.636,0,0,0,866.993,721.7c-5.909-5.461-12.7-10.255-20.5-12.7s-16.727-2.307-23.844,1.609a45.532,45.532,0,0,0-9.669,7.836c-6.965,6.846-14.088,14.583-15.155,24.094-.934,8.322,2.985,16.384,7.131,23.749,4.031,7.161,8.509,14.311,15.045,19.5,7.207,5.722,16.326,8.61,24.8,12.406,19.376,8.678,36.346,22.982,45.878,41.341,10.155,19.559,11.365,42.074,14.842,63.668s10.388,44.359,28.153,58.038c17.441,13.43,41.444,15.18,63.808,15.483,12.654.172,26.285-.233,36.417-7.506,7.4-5.313,11.87-13.667,14.3-22.222,3.483-12.244,3.181-25.637-1.981-37.322s-15.4-21.456-28.006-25.31" transform="translate(-686.979 -613.227)" fill="#bae6ff"/>
      </g>
    </g>
    <text id="A.K.N" transform="translate(34 151)" font-size="70" font-family="Times-Bold, Times" font-weight="700"><tspan x="0" y="0">A</tspan><tspan y="0" font-family="DevanagariMT-Bold, Devanagari MT">.</tspan><tspan y="0">K</tspan><tspan y="0" font-family="DevanagariMT-Bold, Devanagari MT">.</tspan><tspan y="0">N</tspan></text>
  </g>
</svg>
